<?xml version="1.0" encoding="UTF-8"?>
<svg xmlns="http://www.w3.org/2000/svg" width="1200" height="630" viewBox="0 0 1200 630" role="img" aria-label="Mathematik Uebungsaufgaben">
  <defs>
    <linearGradient id="paper" x1="0" y1="0" x2="1200" y2="630" gradientUnits="userSpaceOnUse">
      <stop offset="0%" stop-color="#efe6d4"/>
      <stop offset="45%" stop-color="#f6f1e6"/>
      <stop offset="100%" stop-color="#fffdf8"/>
    </linearGradient>
    <linearGradient id="icon-bg" x1="900" y1="120" x2="1080" y2="510" gradientUnits="userSpaceOnUse">
      <stop offset="0%" stop-color="#4aa894"/>
      <stop offset="55%" stop-color="#2f6f62"/>
      <stop offset="100%" stop-color="#1a4038"/>
    </linearGradient>
    <linearGradient id="icon-key" x1="990" y1="220" x2="990" y2="410" gradientUnits="userSpaceOnUse">
      <stop offset="0%" stop-color="#fffdf8"/>
      <stop offset="100%" stop-color="#efe6d4"/>
    </linearGradient>
    <linearGradient id="icon-plus" x1="930" y1="270" x2="1050" y2="360" gradientUnits="userSpaceOnUse">
      <stop offset="0%" stop-color="#e8783a"/>
      <stop offset="100%" stop-color="#c45c26"/>
    </linearGradient>
    <filter id="shadow" x="-20%" y="-20%" width="140%" height="140%">
      <feDropShadow dx="0" dy="8" stdDeviation="18" flood-color="#1c2430" flood-opacity="0.12"/>
    </filter>
  </defs>

  <rect width="1200" height="630" fill="url(#paper)"/>
  <circle cx="180" cy="90" r="220" fill="#c45c26" opacity="0.06"/>
  <circle cx="1020" cy="560" r="260" fill="#2f5d50" opacity="0.07"/>

  <text x="88" y="250" fill="#c45c26" font-family="Arial, Helvetica, sans-serif" font-size="28" font-weight="800" letter-spacing="6">KLASSEN 1 BIS 6</text>
  <text x="84" y="360" fill="#1c2430" font-family="Georgia, 'Times New Roman', serif" font-size="86" font-weight="700">Mathematik</text>
  <text x="84" y="455" fill="#1c2430" font-family="Georgia, 'Times New Roman', serif" font-size="86" font-weight="700">Uebungsaufgaben</text>
  <text x="88" y="530" fill="#5b6573" font-family="Arial, Helvetica, sans-serif" font-size="34" font-weight="600">Kostenlos ueben · PDF · Zeitlimit · Bestzeiten</text>

  <g transform="translate(900 315)" filter="url(#shadow)">
    <rect x="-105" y="-105" width="210" height="210" rx="48" fill="url(#icon-bg)"/>
    <ellipse cx="-35" cy="-70" rx="55" ry="22" fill="#ffffff" opacity="0.14"/>
    <rect x="-72" y="-48" width="144" height="112" rx="32" fill="url(#icon-key)"/>
    <g transform="rotate(-4)">
      <rect x="-12" y="-38" width="24" height="76" rx="12" fill="url(#icon-plus)"/>
      <rect x="-38" y="-12" width="76" height="24" rx="12" fill="url(#icon-plus)"/>
    </g>
    <circle cx="58" cy="-72" r="16" fill="#ffd166"/>
    <circle cx="58" cy="-72" r="7" fill="#fff8dc" opacity="0.9"/>
  </g>
</svg>
